HIERARCHY
ROOT Hips
{
	OFFSET 0.000000 88.474243 0.000000
	CHANNELS 6 Xposition Yposition Zposition Zrotation Yrotation Xrotation 
	JOINT Hips_Spine
	{
		OFFSET 0.000000 0.000000 0.000000
		CHANNELS 3 Zrotation Yrotation Xrotation
		JOINT Spine
		{
			OFFSET 0.005100 8.711998 -0.691000
			CHANNELS 3 Zrotation Yrotation Xrotation
			JOINT Spine1
			{
				OFFSET -0.009200 8.660301 -1.275000
				CHANNELS 3 Zrotation Yrotation Xrotation
				JOINT Spine2
				{
					OFFSET 0.006300 9.852501 -1.857000
					CHANNELS 3 Zrotation Yrotation Xrotation
					JOINT Spine2_Neck
					{
						OFFSET 0.000000 0.000000 0.000000
						CHANNELS 3 Zrotation Yrotation Xrotation
						JOINT Neck
						{
							OFFSET 0.016300 11.420799 -0.263300
							CHANNELS 3 Zrotation Yrotation Xrotation
							End Site #name: Head
							{
								OFFSET -0.019200 9.262405 2.362500
							}
						}
					}
					JOINT Spine2_LeftShoulder
					{
						OFFSET 0.000000 0.000000 0.000000
						CHANNELS 3 Zrotation Yrotation Xrotation
						JOINT LeftShoulder
						{
							OFFSET 5.616900 6.732201 -0.345700
							CHANNELS 3 Zrotation Yrotation Xrotation
							JOINT LeftArm
							{
								OFFSET 10.664888 -0.183372 -2.440700
								CHANNELS 3 Zrotation Yrotation Xrotation
								JOINT LeftForeArm
								{
									OFFSET 27.459126 0.000000 0.000000
									CHANNELS 3 Zrotation Yrotation Xrotation
									End Site #name: LeftHand
									{
										OFFSET 21.306858 0.000000 0.000000
									}
								}
							}
						}
					}
					JOINT Spine2_RightShoulder
					{
						OFFSET 0.000000 0.000000 0.000000
						CHANNELS 3 Zrotation Yrotation Xrotation
						JOINT RightShoulder
						{
							OFFSET -5.580300 6.737503 -0.344400
							CHANNELS 3 Zrotation Yrotation Xrotation
							JOINT RightArm
							{
								OFFSET -10.679335 -0.188484 -2.383900
								CHANNELS 3 Zrotation Yrotation Xrotation
								JOINT RightForeArm
								{
									OFFSET -27.503529 0.000000 0.000000
									CHANNELS 3 Zrotation Yrotation Xrotation
									End Site #name: RightHand
									{
										OFFSET -21.306808 0.000000 0.000000
									}
								}
							}
						}
					}
				}
			}
		}
	}
	JOINT Hips_LeftUpLeg
	{
		OFFSET 0.000000 0.000000 0.000000
		CHANNELS 3 Zrotation Yrotation Xrotation
		JOINT LeftUpLeg
		{
			OFFSET 6.857700 -6.739601 0.312100
			CHANNELS 3 Zrotation Yrotation Xrotation
			JOINT LeftLeg
			{
				OFFSET -0.367590 -34.731552 -4.572400
				CHANNELS 3 Zrotation Yrotation Xrotation
				End Site #name: LeftFoot
				{
					OFFSET 0.367590 -34.656704 -6.067400
				}
			}
		}
	}
	JOINT Hips_RightUpLeg
	{
		OFFSET 0.000000 0.000000 0.000000
		CHANNELS 3 Zrotation Yrotation Xrotation
		JOINT RightUpLeg
		{
			OFFSET -6.876100 -6.733299 0.301000
			CHANNELS 3 Zrotation Yrotation Xrotation
			JOINT RightLeg
			{
				OFFSET 0.347353 -34.795158 -4.515900
				CHANNELS 3 Zrotation Yrotation Xrotation
				End Site #name: RightFoot
				{
					OFFSET -0.347353 -34.589367 -6.070300
				}
			}
		}
	}
}
MOTION
Frames: 18
Frame Time: 0.041667
-1.792376 -0.124839 3.662868 -1.018266 26.946890 -6.130463 0.000000 0.000000 0.000000 7.949927 -0.538722 -0.769121 3.615015 -1.381074 -0.293093 0.000000 0.000000 0.000000 3.213204 -0.876547 -0.921078 2.555132 -1.977823 1.989260 3.122984 -1.482322 -0.911395 -21.633105 1.660382 1.889413 -55.202909 4.547242 31.051750 -0.963199 -24.399798 1.660573 2.847532 -0.966466 -0.090388 16.982144 10.223904 2.756073 56.476318 8.321058 5.068445 0.723557 39.839526 -0.364619 0.000000 -0.000000 -0.000000 -3.436281 14.291055 -7.563139 3.051682 9.415362 26.438995 0.000000 0.000000 0.000000 -0.605193 -2.794039 -19.516896 1.160740 -6.977316 12.392631 
-2.099171 -0.185521 4.223858 -1.254932 28.013107 -6.141159 0.000000 0.000000 0.000000 8.610265 -0.599865 -0.728162 3.765026 -1.444331 -0.231307 0.000000 0.000000 0.000000 3.333215 -0.904965 -0.854014 2.620811 -2.001683 2.223453 3.282070 -1.523109 -0.812300 -21.418233 1.775146 1.861344 -55.452983 4.804182 30.723457 -0.978882 -25.061795 1.637869 2.984091 -1.020823 -0.051886 16.984935 10.453818 2.825288 56.145602 8.264441 5.432056 0.719869 40.376484 -0.369071 -0.000000 -0.000000 -0.000000 -2.217946 14.074694 -6.942247 1.113551 6.464475 26.787324 0.000000 0.000000 0.000000 0.083339 -2.731905 -19.859125 1.274952 -7.007036 13.003315 
-2.348661 -0.248026 4.785177 -1.422864 28.574492 -6.158227 0.000000 0.000000 0.000000 9.105521 -0.766214 -0.685618 3.925028 -1.500836 -0.155180 0.000000 0.000000 0.000000 3.453403 -0.931896 -0.789465 2.661256 -2.023078 2.441998 3.442365 -1.554828 -0.697612 -21.236694 1.851427 1.843661 -55.660925 4.962423 30.361799 -0.983886 -25.580471 1.636725 3.119760 -1.062294 -0.027746 17.006559 10.639938 2.891104 55.815703 8.238952 5.800087 0.715907 40.955301 -0.371412 -0.000000 -0.000000 -0.000000 -0.485691 13.818551 -6.576148 -1.144871 3.624900 28.372108 0.000000 -0.000000 0.000000 0.695578 -2.563334 -20.081175 1.391584 -7.080778 13.608536 
-2.527208 -0.308293 5.337201 -1.519483 28.697275 -6.180782 0.000000 0.000000 0.000000 9.471179 -1.026077 -0.585826 4.067892 -1.548474 -0.077367 0.000000 0.000000 0.000000 3.563524 -0.956951 -0.725057 2.698809 -2.017920 2.610676 3.597045 -1.585099 -0.583962 -21.095478 1.878773 1.847168 -55.792359 5.078860 30.005085 -0.987383 -25.989555 1.644147 3.249321 -1.097650 -0.007906 17.041966 10.797045 2.954003 55.465878 8.265398 6.214641 0.714576 41.636157 -0.370702 -0.000000 -0.000000 -0.000000 2.050698 13.463581 -6.326290 -2.954994 1.805879 34.355996 0.000000 -0.000000 0.000000 1.239856 -2.250232 -20.246267 1.517662 -7.189284 14.153351 
-2.616717 -0.368644 5.866248 -1.551270 28.515738 -6.176351 0.000000 0.000000 0.000000 9.786955 -1.244867 -0.342901 4.187806 -1.589558 -0.006776 0.000000 0.000000 0.000000 3.667316 -0.979091 -0.663008 2.741056 -2.012372 2.742347 3.741213 -1.610462 -0.478043 -20.982056 1.892236 1.847141 -55.893141 5.150272 29.704566 -0.994868 -26.346718 1.648029 3.369842 -1.125591 0.007796 17.070415 10.931205 2.982944 55.112367 8.362566 6.654854 0.715372 42.416413 -0.368196 -0.000000 -0.000000 -0.000000 4.700747 12.802932 -6.424192 -3.816327 0.920339 41.627188 0.000000 -0.000000 0.000000 1.681287 -1.756424 -20.372530 1.644996 -7.298360 14.709592 
-2.619723 -0.439214 6.341384 -1.540418 28.071407 -6.164575 0.000000 -0.000000 0.000000 10.023272 -1.466017 0.003164 4.303490 -1.622996 0.062231 0.000000 0.000000 0.000000 3.765716 -0.994672 -0.602993 2.768941 -2.007538 2.868368 3.873517 -1.628878 -0.372099 -20.891160 1.892836 1.833932 -55.976343 5.191716 29.448023 -1.000148 -26.631770 1.641740 3.481476 -1.148309 0.034170 17.125040 11.072218 3.015488 54.804571 8.341912 6.757468 0.719488 43.279809 -0.362006 -0.000000 -0.000000 -0.000000 7.035894 11.720148 -7.155016 -4.610708 0.148475 49.674697 0.000000 -0.000000 0.000000 1.988161 -1.281490 -20.433898 1.774262 -7.405996 15.183248 
-2.546019 -0.521860 6.743949 -1.507159 27.394551 -6.148010 0.000000 -0.000000 0.000000 10.176289 -1.682392 0.418359 4.411783 -1.648554 0.131010 0.000000 0.000000 0.000000 3.855800 -1.006840 -0.542598 2.787095 -2.001312 2.984824 3.994017 -1.640151 -0.265997 -20.817364 1.887364 1.819238 -56.051424 5.211231 29.259688 -1.006775 -26.851808 1.635346 3.582284 -1.166857 0.092106 17.171779 11.178291 3.043501 54.509760 8.367753 6.833145 0.728022 44.212348 -0.356125 -0.000000 -0.000000 -0.000000 8.963447 10.258663 -8.295192 -4.201373 -0.478463 56.911954 0.000000 -0.000000 0.000000 2.153365 -0.882901 -20.405847 1.915167 -7.512399 15.505184 
-2.408304 -0.592929 7.081958 -1.457873 26.449751 -6.133324 0.000000 -0.000000 0.000000 10.222443 -1.928342 0.888800 4.508153 -1.668252 0.201867 0.000000 0.000000 0.000000 3.935463 -1.016635 -0.483921 2.804217 -1.995256 3.086379 4.101089 -1.648390 -0.163742 -20.756574 1.865549 1.793586 -56.129588 5.244741 29.149001 -1.009128 -26.952689 1.625148 3.669279 -1.183335 0.150254 17.218280 11.284914 3.079274 54.263212 8.463821 6.875367 0.738153 45.194365 -0.347360 -0.000000 -0.000000 -0.000000 9.088397 10.162719 -9.031148 -3.285589 -0.661539 62.909888 0.000000 -0.000000 0.000000 2.204245 -0.552508 -20.323858 2.076472 -7.614436 15.683379 
-2.220659 -0.641007 7.361117 -1.388209 25.301781 -6.094046 0.000000 -0.000000 0.000000 10.180557 -2.180118 1.382483 4.587742 -1.687960 0.266134 0.000000 0.000000 0.000000 4.003574 -1.027504 -0.433358 2.822494 -1.988749 3.170526 4.192608 -1.656529 -0.074818 -20.719090 1.819929 1.758384 -56.199681 5.271569 29.126388 -1.011442 -26.985451 1.611641 3.740752 -1.201134 0.200669 17.245902 11.385568 3.110693 54.056596 8.615897 6.880891 0.753609 46.114285 -0.336017 -0.000000 -0.000000 -0.000000 8.831470 10.633570 -10.727952 -3.385852 -0.851857 68.227071 0.000000 -0.000000 0.000000 2.181533 -0.202490 -20.277151 2.264960 -7.723859 15.798474 
-1.984412 -0.673202 7.600222 -1.279795 23.952717 -5.986619 0.000000 -0.000000 0.000000 10.065904 -2.388090 1.764447 4.654983 -1.703587 0.318420 0.000000 0.000000 0.000000 4.058544 -1.040254 -0.384954 2.842804 -1.980781 3.239977 4.269233 -1.665977 -0.006312 -20.706261 1.768195 1.724573 -56.260067 5.294913 29.172089 -1.012052 -26.952545 1.595061 3.798523 -1.220139 0.238442 17.238957 11.484122 3.135908 53.895039 8.833629 6.841429 0.769232 46.902900 -0.325822 -0.000000 -0.000000 -0.000000 8.512238 10.968812 -12.323585 -4.075302 -1.076673 71.481044 0.000000 -0.000000 0.000000 2.077174 0.196267 -20.355428 2.442530 -7.812936 15.984632 
-1.688295 -0.702387 7.805442 -1.101815 22.380439 -5.787768 0.000000 -0.000000 0.000000 9.905900 -2.521850 2.042465 4.711948 -1.717301 0.362401 0.000000 0.000000 0.000000 4.101367 -1.054597 -0.334328 2.863515 -1.973891 3.296207 4.331594 -1.676079 0.040457 -20.714548 1.705463 1.690269 -56.300562 5.366310 29.233580 -1.001607 -26.819029 1.579485 3.844144 -1.238307 0.264845 17.196065 11.572578 3.155014 53.794800 9.012828 6.767686 0.785845 47.518338 -0.318515 -0.000000 -0.000000 -0.000000 8.213062 11.177214 -13.471167 -5.017942 -1.421468 72.582727 0.000000 -0.000000 0.000000 1.870271 0.667956 -20.537804 2.608828 -7.847975 16.253030 
-1.327850 -0.729467 7.992165 -0.877637 20.631821 -5.546850 0.000000 -0.000000 0.000000 9.716579 -2.575136 2.238773 4.759572 -1.728510 0.382224 0.000000 0.000000 0.000000 4.134785 -1.067560 -0.302516 2.878521 -1.963906 3.343163 4.384181 -1.686948 0.062733 -20.749395 1.627378 1.654645 -56.323488 5.500165 29.315523 -0.989942 -26.622707 1.571208 3.880501 -1.253458 0.277668 17.119187 11.645159 3.159690 53.765691 9.131905 6.643889 0.802953 47.942412 -0.314159 -0.000000 -0.000000 -0.000000 7.874113 11.221767 -14.201111 -5.932104 -2.021344 71.702264 0.000000 -0.000000 0.000000 1.550623 1.113522 -20.814029 2.749858 -7.848094 16.594684 
-0.906867 -0.756150 8.172968 -0.611602 18.657375 -5.312527 0.000000 -0.000000 0.000000 9.515599 -2.563623 2.378902 4.800445 -1.735671 0.376871 0.000000 0.000000 0.000000 4.163017 -1.078829 -0.291874 2.882936 -1.954555 3.384378 4.428415 -1.699076 0.061820 -20.808065 1.538024 1.608953 -56.308055 5.683762 29.361317 -0.973709 -26.395654 1.567812 3.909846 -1.265409 0.276309 17.019840 11.712111 3.155155 53.798966 9.196426 6.497431 0.819583 48.152773 -0.311556 -0.000000 -0.000000 -0.000000 7.342647 10.965153 -14.513817 -6.723455 -3.069372 68.739618 0.000000 -0.000000 0.000000 1.149958 1.499777 -21.115404 2.859942 -7.819944 16.962615 
-0.432286 -0.782717 8.358555 -0.321885 16.687507 -5.121565 0.000000 -0.000000 0.000000 9.294995 -2.514527 2.469533 4.837145 -1.740110 0.352413 0.000000 0.000000 0.000000 4.187760 -1.088336 -0.297175 2.878097 -1.949988 3.420209 4.465112 -1.708865 0.048350 -20.889248 1.438546 1.551894 -56.255410 5.960421 29.369589 -0.959935 -26.129704 1.565306 3.937586 -1.274291 0.263423 16.910840 11.781342 3.149452 53.884277 9.200222 6.315564 0.834072 48.120478 -0.306221 -0.000000 -0.000000 -0.000000 6.456038 10.326546 -14.173382 -6.970825 -4.504146 63.573633 0.000000 -0.000000 0.000000 0.689344 1.677427 -21.345758 2.939391 -7.779425 17.324745 
0.089167 -0.809630 8.553589 -0.059086 15.015332 -4.996874 0.000000 -0.000000 0.000000 9.049217 -2.442589 2.528847 4.873457 -1.744716 0.312860 0.000000 0.000000 0.000000 4.210356 -1.097860 -0.317818 2.860571 -1.950734 3.451021 4.500354 -1.722211 0.018459 -20.994563 1.343936 1.475392 -56.149675 6.315910 29.325810 -0.946017 -25.822175 1.565881 3.964626 -1.282285 0.245752 16.797079 11.868859 3.153453 54.006715 9.144369 6.108973 0.847738 47.891351 -0.298291 -0.000000 -0.000000 -0.000000 4.310396 9.833066 -12.948843 -5.928865 -5.610156 57.295922 0.000000 -0.000000 0.000000 0.197134 1.579448 -21.497292 2.980375 -7.716722 17.680567 
0.649541 -0.842743 8.757239 0.155930 13.787563 -4.948244 0.000000 -0.000000 0.000000 8.798835 -2.347600 2.516955 4.908798 -1.749926 0.267441 0.000000 0.000000 0.000000 4.233884 -1.109589 -0.346819 2.835124 -1.962516 3.474925 4.534943 -1.737099 -0.008342 -21.128305 1.275932 1.393574 -56.009410 6.798479 29.204332 -0.938924 -25.478519 1.561413 3.993558 -1.291613 0.226993 16.674536 11.976979 3.161418 54.159888 9.059743 5.904739 0.861047 47.569656 -0.288136 -0.000000 -0.000000 -0.000000 1.692018 9.707465 -11.433768 -4.859289 -6.265054 50.299056 0.000000 -0.000000 0.000000 -0.320255 1.251523 -21.559675 3.023658 -7.567818 18.024829 
1.243520 -0.886635 8.964765 0.349262 12.751197 -4.962134 0.000000 -0.000000 0.000000 8.557529 -2.260896 2.469356 4.944241 -1.752760 0.222192 0.000000 0.000000 0.000000 4.260019 -1.122526 -0.377296 2.801084 -1.985506 3.492036 4.571461 -1.750522 -0.025512 -21.286751 1.209474 1.287685 -55.828341 7.363861 29.063351 -0.934111 -25.075485 1.553619 4.026140 -1.299709 0.212317 16.549521 12.133472 3.178116 54.337282 8.916210 5.682790 0.874128 47.217758 -0.277405 -0.000000 -0.000000 -0.000000 -1.263804 9.616815 -11.110619 -4.295080 -7.050569 44.657739 0.000000 -0.000000 0.000000 -0.877016 0.693216 -21.579185 3.075525 -7.299496 18.512524 
1.865897 -0.942059 9.172633 0.562014 11.830258 -5.028961 0.000000 -0.000000 0.000000 8.283723 -2.187214 2.421612 4.981316 -1.753291 0.192912 0.000000 0.000000 0.000000 4.291926 -1.129921 -0.398387 2.761962 -2.015533 3.497750 4.608785 -1.750822 -0.013458 -21.474214 1.130745 1.160918 -55.524971 7.960771 28.693818 -0.934533 -24.600937 1.533930 4.063862 -1.300040 0.210945 16.411413 12.377935 3.197308 54.587139 8.700503 5.174553 0.887364 46.981422 -0.266069 0.000000 -0.000000 -0.000000 -3.608124 9.066026 -10.908862 -4.176637 -7.232041 40.069229 0.000000 -0.000000 0.000000 -1.475714 0.003246 -21.554425 3.087100 -6.997746 19.140431 
